# xmcd CD database file
#
# Track frame offsets:
#	150
#	28225
#	68572
#	74621
#	118046
#	140807
#	165096
#	223401
#	260071
#	293915
#
# Disc length: 4581 seconds
#
# Revision: 0
# Processed by: cddbd v1.5.2PL0 Copyright (c) Steve Scherf et al.
# Submitted via: CDex 1.51
#
DISCID=a511e30a
DTITLE=Dr. John  - 2003 Bonnaroo Music Festival, Manchester, TN
DYEAR=2003
DGENRE=Blues
TTITLE0=Dr. John and Superjam - Tipitina
TTITLE1=Dr. John and Superjam - Iko Iko
TTITLE2=Dr. John and Superjam - Shoo Fly
TTITLE3=Dr. John and Superjam - Guilded Splinters
TTITLE4=Dr. John and Superjam - Right Place Wrong Time
TTITLE5=Dr. John and Superjam - Little Bit of Your Love
TTITLE6=Dr. John and Superjam - Qualified
TTITLE7=Dr. John and Superjam - Big Chief
TTITLE8=Dr. John and Superjam - The Sky Is Crying
TTITLE9=Dr. John and Superjam - You Better Change Your Ways
EXTD=YEAR: 2003
EXTT0=
EXTT1=
EXTT2=
EXTT3=
EXTT4=
EXTT5=
EXTT6=
EXTT7=
EXTT8=
EXTT9=
PLAYORDER=
